<svg xmlns="http://www.w3.org/2000/svg" viewBox="0 0 45 45">
    <defs>
        <linearGradient id="grad_w_body" x1="50%" y1="0%" x2="50%" y2="100%">
            <stop offset="0%" stop-color="#FFFFFF"/>
            <stop offset="100%" stop-color="#D1D1D1"/>
        </linearGradient>
        <linearGradient id="grad_b_body" x1="50%" y1="0%" x2="50%" y2="100%">
            <stop offset="0%" stop-color="#595959"/>
            <stop offset="100%" stop-color="#2b2b2b"/>
        </linearGradient>
    </defs>
    <g stroke="#d1d1d1" stroke-width="1.5" stroke-linecap="round" stroke-linejoin="round" fill="url(#grad_b_body)">
        <path d="M8 12a2 2 0 1 1-4 0 2 2 0 0 1 4 0zM24.5 7.5a2 2 0 1 1-4 0 2 2 0 0 1 4 0zM41 12a2 2 0 1 1-4 0 2 2 0 0 1 4 0zM10.5 20.5a2 2 0 1 1-4 0 2 2 0 0 1 4 0zM38.5 20.5a2 2 0 1 1-4 0 2 2 0 0 1 4 0z" />
        <path d="M9 26c8.5-1.5 21-1.5 27 0l2-12-7 11V11l-5.5 13.5-3-15-3 15-5.5-13.5V25l-7-11 2 12zM9 26c0 2 1.5 2 2.5 4 1 2.5 3 4.5 6 5 3 .5 15 .5 18 0 3-.5 5-2.5 6-5 1-2 2.5-2 2.5-4-8.5-1.5-18.5-1.5-27 0z" />
        <path d="M11.5 30c3.5-1 18.5-1 22 0M12 33.5c6-1 15-1 21 0" fill="none" />
    </g>
    <circle cx="6" cy="12" r="1.5" fill="#d1d1d1"/>
    <circle cx="24.5" cy="7.5" r="1.5" fill="#d1d1d1"/>
    <circle cx="43" cy="12" r="1.5" fill="#d1d1d1"/>
    <circle cx="9" cy="21" r="1.5" fill="#d1d1d1"/>
    <circle cx="40" cy="21" r="1.5" fill="#d1d1d1"/>
</svg>