<svg xmlns="http://www.w3.org/2000/svg" viewBox="0 0 45 45">
    <defs>
        <linearGradient id="grad_w_body" x1="50%" y1="0%" x2="50%" y2="100%">
            <stop offset="0%" stop-color="#FFFFFF"/>
            <stop offset="100%" stop-color="#D1D1D1"/>
        </linearGradient>
        <linearGradient id="grad_b_body" x1="50%" y1="0%" x2="50%" y2="100%">
            <stop offset="0%" stop-color="#595959"/>
            <stop offset="100%" stop-color="#2b2b2b"/>
        </linearGradient>
    </defs>
    <g stroke="#2c2c2c" stroke-width="1.5" stroke-linecap="round" stroke-linejoin="round" fill="url(#grad_w_body)">
        <g>
            <path d="M9 36c3.39-.47 5.5-2.06 5.5-5.5a5.5 5.5 0 0 1 11 0c0 3.44 2.11 5.03 5.5 5.5v2h-22v-2z" />
            <path d="M19.5 32c2.5 0 4.5-2 4.5-4.5s-2-4.5-4.5-4.5-4.5 2-4.5 4.5 2 4.5 4.5 4.5z" />
            <path d="M15 32l-5.5-5.5M20 23l-5.5-5.5M25 32l5.5-5.5M20 12l5.5-5.5" />
            <path d="M22.5 11.63V6M20 8h5M22.5 11.63c1.3-1 2-2.5 2-4 0-2.5-1.5-4.5-4-4.5s-4 2-4 4.5c0 1.5.7 3 2 4" />
        </g>
    </g>
</svg>