<svg xmlns="http://www.w3.org/2000/svg" viewBox="0 0 45 45">
    <defs>
        <linearGradient id="grad_w_body" x1="50%" y1="0%" x2="50%" y2="100%">
            <stop offset="0%" stop-color="#FFFFFF"/>
            <stop offset="100%" stop-color="#D1D1D1"/>
        </linearGradient>
        <linearGradient id="grad_b_body" x1="50%" y1="0%" x2="50%" y2="100%">
            <stop offset="0%" stop-color="#595959"/>
            <stop offset="100%" stop-color="#2b2b2b"/>
        </linearGradient>
    </defs>
    <g stroke="#2c2c2c" stroke-width="1.5" stroke-linecap="round" stroke-linejoin="round" fill="url(#grad_w_body)">
        <path d="M22.5 11.63V6M20 8h5" />
        <path d="M22.5 25s4.5-7.5 3-10.5c0 0-1-2.5-3-2.5s-3 2.5-3 2.5c-1.5 3 3 10.5 3 10.5" />
        <path d="M11.5 37c5.5 3.5 15.5 3.5 21 0v-7s9-4.5 6-10.5c-4-1-5 2-8 2s-4-2.5-5-2.5-2 2.5-5 2.5-4-3-8-2c-3 6 6 10.5 6 10.5v7z" />
        <path d="M11.5 30c5.5-3 15.5-3 21 0M11.5 33.5c5.5-3 15.5-3 21 0M11.5 37c5.5-3 15.5-3 21 0" />
    </g>
</svg>